<svg xmlns="http://www.w3.org/2000/svg" width="280" height="280" viewBox="0 0 48 48">
  <g transform="translate(0, 4)">
    <path fill="#6C63FF" d="M40,12H8c-2.2,0-4,1.8-4,4v20c0,2.2,1.8,4,4,4h32c2.2,0,4-1.8,4-4V16C44,13.8,42.2,12,40,12z"/>
    <path fill="#E8EAF6" d="M40,34H8c-1.1,0-2-0.9-2-2V16c0-1.1,0.9-2,2-2h32c1.1,0,2,0.9,2,2v16C42,33.1,41.1,34,40,34z"/>
    <g>
      <path fill="#5952D4" d="M40,34H8c-1.1,0-2-0.9-2-2v-9h36v9C42,33.1,41.1,34,40,34z"/>
      <path fill="#5952D4" d="M24,24c-2.2,0-4-1.8-4-4s1.8-4,4-4s4,1.8,4,4S26.2,24,24,24z"/>
    </g>
    <path fill="#5952D4" d="M31,30h-3c-0.6,0-1-0.4-1-1v-1c0-1.7-1.3-3-3-3s-3,1.3-3,3v1c0,0.6-0.4,1-1,1h-3c-0.6,0-1-0.4-1-1v-6c0-1.1,0.9-2,2-2h12c1.1,0,2,0.9,2,2v6C32,29.6,31.6,30,31,30z"/>
    <rect x="12" y="16" fill="#5952D4" width="24" height="2"/>
  </g>
</svg>
